<svg width="24" height="24" viewBox="0 0 24 24" fill="none" xmlns="http://www.w3.org/2000/svg">
<path d="M18.227 7.609L18.784 7.05C18.9798 6.85346 19.1326 6.61832 19.2327 6.35952C19.3328 6.10073 19.3779 5.82395 19.3652 5.54679C19.3525 5.26962 19.2822 4.99812 19.1589 4.74956C19.0357 4.501 18.862 4.28081 18.649 4.103C16.5342 2.33183 13.9276 1.251 11.18 1.006L11 1C10.5005 0.999628 10.0189 1.1862 9.64999 1.523C9.23599 1.902 8.99999 2.438 8.99999 3V5.229C5.34299 6.094 2.66699 9.417 2.66699 13.235C2.66699 17.782 6.35499 21.479 10.891 21.479C12.485 21.479 14.001 21 15.332 20.134C15.609 20.276 15.915 20.36 16.232 20.36L16.341 20.356C16.6224 20.3404 16.8972 20.2655 17.1476 20.1363C17.398 20.007 17.6183 19.8263 17.794 19.606C19.2179 17.8157 19.9946 15.5965 19.998 13.309C19.9954 11.274 19.3781 9.28719 18.227 7.609ZM10.891 19.479C7.45299 19.479 4.66699 16.686 4.66699 13.235C4.66725 11.7383 5.20632 10.2917 6.1856 9.15986C7.16487 8.02799 8.51889 7.2865 9.99999 7.071V13.479L14.609 18.233C13.5381 19.0416 12.2328 19.479 10.891 19.479ZM11 12.025V3C13.3415 3.21132 15.5626 4.13276 17.366 5.641L11 12.025ZM11.214 13.294L16.233 8.266C17.3783 9.69729 18.0022 11.4759 18.002 13.309C18.004 15.1449 17.38 16.9266 16.233 18.36L11.214 13.294Z" fill="white"/>
</svg>
