<svg xmlns="http://www.w3.org/2000/svg" viewBox="0 0 60 30" width="60" height="30">
  <rect width="60" height="30" fill="#B22234"/>
  <rect width="60" height="2.3" y="0" fill="#fff"/>
  <rect width="60" height="2.3" y="4.6" fill="#fff"/>
  <rect width="60" height="2.3" y="9.2" fill="#fff"/>
  <rect width="60" height="2.3" y="13.8" fill="#fff"/>
  <rect width="60" height="2.3" y="18.4" fill="#fff"/>
  <rect width="60" height="2.3" y="23" fill="#fff"/>
  <rect width="60" height="2.3" y="27.6" fill="#fff"/>
  <rect width="24" height="16.1" fill="#3C3B6E"/>
  <g fill="#fff">
    <g id="s">
      <g id="b">
        <polygon id="a" points="12,1.4 13.2,4.9 16.8,4.9 14.1,7.1 15.3,10.6 12,8.4 8.7,10.6 9.9,7.1 7.2,4.9 10.8,4.9"/>
      </g>
      <use href="#a" transform="translate(0,2.3)"/>
      <use href="#a" transform="translate(0,4.6)"/>
      <use href="#a" transform="translate(0,6.9)"/>
      <use href="#a" transform="translate(0,9.2)"/>
      <use href="#a" transform="translate(0,11.5)"/>
      <use href="#a" transform="translate(0,13.8)"/>
    </g>
    <use href="#s" transform="translate(0,0)"/>
    <use href="#s" transform="translate(0,2.3)"/>
    <use href="#s" transform="translate(0,4.6)"/>
    <use href="#s" transform="translate(0,6.9)"/>
    <use href="#s" transform="translate(0,9.2)"/>
    <use href="#s" transform="translate(0,11.5)"/>
    <use href="#s" transform="translate(0,13.8)"/>
  </g>
</svg>
